<svg xmlns="http://www.w3.org/2000/svg" xmlns:xlink="http://www.w3.org/1999/xlink" preserveAspectRatio="xMidYMid" width="122" height="122" viewBox="0 0 2000 2000">
  <defs>
    <style>
      .cls-1 {
        fill: red;
      }

      .cls-1, .cls-2 {
        fill-rule: evenodd;
      }

      .cls-2 {
        fill: #000;
      }
    </style>
  </defs>
  <path d="M157.000,1345.423 L157.000,1180.283 L1843.000,1180.283 L1843.000,1345.423 L157.000,1345.423 Z" class="cls-1"/>
  <path d="M1771.103,1417.560 L1771.103,1528.400 L1754.485,1528.400 L1754.485,1417.560 L1734.936,1417.560 L1734.936,1402.749 L1790.082,1402.749 L1790.082,1417.560 L1771.103,1417.560 ZM1690.705,1471.841 C1688.967,1466.579 1687.325,1461.180 1685.777,1455.646 C1684.230,1450.112 1682.804,1444.308 1681.501,1438.231 C1681.391,1437.472 1681.216,1436.550 1680.971,1435.464 C1680.727,1434.379 1680.442,1433.132 1680.116,1431.721 C1680.279,1433.132 1680.414,1434.339 1680.523,1435.342 C1680.632,1436.346 1680.713,1437.201 1680.768,1437.905 L1681.664,1450.682 L1682.560,1466.226 C1682.613,1467.094 1682.654,1468.152 1682.682,1469.400 C1682.709,1470.648 1682.723,1472.058 1682.723,1473.631 L1683.619,1528.400 L1666.920,1528.400 L1666.920,1402.749 L1682.723,1402.749 L1699.584,1452.879 C1704.472,1467.040 1708.789,1482.150 1712.536,1498.208 C1711.178,1488.497 1710.173,1479.708 1709.522,1471.841 C1708.870,1463.975 1708.544,1456.569 1708.544,1449.624 L1708.544,1402.749 L1725.569,1402.749 L1725.569,1528.400 L1709.685,1528.400 L1690.705,1471.841 ZM1606.317,1402.749 L1651.362,1402.749 L1651.362,1417.072 L1623.260,1417.072 L1623.260,1456.867 L1648.185,1456.867 L1648.185,1471.190 L1623.260,1471.190 L1623.260,1514.077 L1651.362,1514.077 L1651.362,1528.400 L1606.317,1528.400 L1606.317,1402.749 ZM1573.246,1485.757 C1573.136,1483.588 1573.042,1481.716 1572.961,1480.142 C1572.879,1478.569 1572.839,1477.267 1572.839,1476.235 L1572.105,1459.390 L1571.698,1443.928 C1571.698,1443.819 1571.684,1443.589 1571.657,1443.236 C1571.629,1442.884 1571.589,1442.409 1571.535,1441.812 L1571.128,1444.334 C1570.693,1447.319 1570.299,1449.923 1569.947,1452.147 C1569.593,1454.372 1569.281,1456.244 1569.010,1457.762 L1566.892,1469.237 L1566.078,1473.550 L1555.488,1528.400 L1544.085,1528.400 L1534.147,1481.037 C1532.789,1474.799 1531.581,1468.464 1530.522,1462.035 C1529.463,1455.606 1528.498,1448.865 1527.630,1441.812 L1522.743,1528.400 L1506.778,1528.400 L1517.123,1402.749 L1531.622,1402.749 L1542.700,1454.019 C1544.057,1460.421 1545.292,1466.836 1546.406,1473.265 C1547.518,1479.694 1548.537,1486.436 1549.461,1493.488 C1549.569,1492.566 1549.650,1491.848 1549.705,1491.332 C1549.758,1490.817 1549.813,1490.450 1549.868,1490.233 L1552.230,1475.829 L1554.348,1462.157 L1556.221,1453.124 L1566.078,1402.749 L1580.740,1402.749 L1592.307,1528.400 L1576.097,1528.400 L1573.246,1485.757 ZM1461.977,1472.655 L1461.977,1528.400 L1445.034,1528.400 L1445.034,1402.749 L1467.353,1402.749 C1478.105,1402.749 1485.925,1405.463 1490.812,1410.887 C1495.700,1416.368 1498.143,1425.047 1498.143,1436.929 C1498.143,1453.640 1493.228,1464.435 1483.400,1469.318 C1478.458,1471.543 1471.316,1472.655 1461.977,1472.655 ZM1476.639,1422.199 C1474.032,1418.728 1469.931,1416.991 1464.339,1416.991 L1461.977,1416.991 L1461.977,1458.169 C1468.982,1458.169 1473.815,1456.759 1476.476,1453.937 C1479.191,1451.062 1480.549,1445.962 1480.549,1438.638 C1480.549,1431.151 1479.245,1425.672 1476.639,1422.199 ZM1395.997,1529.946 C1383.779,1529.946 1375.171,1524.929 1370.176,1514.891 C1365.234,1505.072 1362.763,1487.629 1362.763,1462.564 C1362.763,1440.212 1365.207,1424.396 1370.094,1415.119 C1375.035,1405.788 1383.398,1401.122 1395.183,1401.122 C1405.717,1401.122 1413.537,1404.730 1418.642,1411.945 C1422.009,1416.775 1424.452,1423.637 1425.973,1432.534 C1427.493,1440.782 1428.254,1452.826 1428.254,1468.667 C1428.254,1490.857 1425.782,1506.618 1420.841,1515.949 C1415.899,1525.281 1407.618,1529.946 1395.997,1529.946 ZM1407.564,1427.163 C1405.609,1420.002 1401.618,1416.421 1395.590,1416.421 C1389.562,1416.421 1385.543,1419.704 1383.535,1426.268 C1381.580,1432.888 1380.602,1446.179 1380.602,1466.144 C1380.602,1484.536 1381.633,1497.286 1383.697,1504.393 C1385.815,1511.121 1389.779,1514.484 1395.590,1514.484 C1401.292,1514.484 1405.202,1511.338 1407.320,1505.044 C1409.438,1498.806 1410.496,1487.277 1410.496,1470.457 C1410.496,1448.702 1409.519,1434.271 1407.564,1427.163 ZM1310.061,1402.749 L1327.004,1402.749 L1327.004,1514.077 L1354.699,1514.077 L1354.699,1528.400 L1310.061,1528.400 L1310.061,1402.749 ZM1249.458,1402.749 L1294.503,1402.749 L1294.503,1417.072 L1266.401,1417.072 L1266.401,1456.867 L1291.326,1456.867 L1291.326,1471.190 L1266.401,1471.190 L1266.401,1514.077 L1294.503,1514.077 L1294.503,1528.400 L1249.458,1528.400 L1249.458,1402.749 ZM1202.050,1528.400 L1177.776,1402.749 L1194.475,1402.749 L1202.050,1449.136 L1203.354,1457.518 L1206.042,1475.747 C1206.476,1478.840 1206.869,1481.661 1207.223,1484.211 C1207.575,1486.762 1207.887,1489.067 1208.160,1491.128 L1208.974,1497.313 C1209.137,1496.066 1209.272,1494.953 1209.381,1493.976 C1209.490,1493.000 1209.598,1492.186 1209.707,1491.535 L1211.907,1476.968 L1214.757,1457.844 C1215.029,1456.108 1215.287,1454.507 1215.531,1453.042 C1215.776,1451.577 1216.006,1450.275 1216.224,1449.136 L1224.369,1402.749 L1240.172,1402.749 L1215.491,1528.400 L1202.050,1528.400 ZM1127.192,1402.749 L1172.237,1402.749 L1172.237,1417.072 L1144.135,1417.072 L1144.135,1456.867 L1169.061,1456.867 L1169.061,1471.190 L1144.135,1471.190 L1144.135,1514.077 L1172.237,1514.077 L1172.237,1528.400 L1127.192,1528.400 L1127.192,1402.749 ZM1096.239,1520.181 C1090.102,1525.661 1079.105,1528.400 1063.249,1528.400 L1049.565,1528.400 L1049.565,1402.749 L1070.417,1402.749 C1076.771,1402.749 1082.119,1403.455 1086.464,1404.865 C1090.482,1406.222 1094.066,1408.637 1097.216,1412.108 C1101.941,1417.316 1105.307,1424.099 1107.317,1432.453 C1109.325,1440.538 1110.331,1452.120 1110.331,1467.202 C1110.331,1481.037 1109.217,1492.322 1106.991,1501.056 C1104.818,1509.412 1101.234,1515.786 1096.239,1520.181 ZM1087.442,1427.896 C1084.020,1420.626 1077.748,1416.991 1068.625,1416.991 L1066.507,1416.991 L1066.507,1513.589 C1076.824,1513.589 1083.721,1510.470 1087.197,1504.230 C1090.781,1497.992 1092.573,1485.866 1092.573,1467.853 C1092.573,1448.485 1090.863,1435.166 1087.442,1427.896 ZM984.074,1520.181 C977.937,1525.661 966.940,1528.400 951.084,1528.400 L937.399,1528.400 L937.399,1402.749 L958.252,1402.749 C964.606,1402.749 969.954,1403.455 974.299,1404.865 C978.317,1406.222 981.901,1408.637 985.051,1412.108 C989.776,1417.316 993.142,1424.099 995.152,1432.453 C997.160,1440.538 998.166,1452.120 998.166,1467.202 C998.166,1481.037 997.052,1492.322 994.826,1501.056 C992.653,1509.412 989.069,1515.786 984.074,1520.181 ZM975.277,1427.896 C971.855,1420.626 965.583,1416.991 956.460,1416.991 L954.342,1416.991 L954.342,1513.589 C964.659,1513.589 971.556,1510.470 975.032,1504.230 C978.616,1497.992 980.408,1485.866 980.408,1467.853 C980.408,1448.485 978.698,1435.166 975.277,1427.896 ZM883.150,1471.841 C881.411,1466.579 879.769,1461.180 878.222,1455.646 C876.674,1450.112 875.248,1444.308 873.945,1438.231 C873.836,1437.472 873.660,1436.550 873.416,1435.464 C873.171,1434.379 872.886,1433.132 872.560,1431.721 C872.723,1433.132 872.858,1434.339 872.968,1435.342 C873.076,1436.346 873.157,1437.201 873.212,1437.905 L874.108,1450.682 L875.004,1466.226 C875.058,1467.094 875.098,1468.152 875.126,1469.400 C875.153,1470.648 875.167,1472.058 875.167,1473.631 L876.063,1528.400 L859.365,1528.400 L859.365,1402.749 L875.167,1402.749 L892.028,1452.879 C896.916,1467.040 901.233,1482.150 904.980,1498.208 C903.622,1488.497 902.618,1479.708 901.966,1471.841 C901.314,1463.975 900.989,1456.569 900.989,1449.624 L900.989,1402.749 L918.013,1402.749 L918.013,1528.400 L902.129,1528.400 L883.150,1471.841 ZM827.922,1503.905 L802.997,1503.905 L798.191,1528.400 L781.900,1528.400 L809.269,1402.749 L822.465,1402.749 L849.427,1528.400 L832.647,1528.400 L827.922,1503.905 ZM821.732,1470.783 C819.233,1457.166 817.197,1442.625 815.623,1427.163 C814.862,1434.705 813.884,1442.341 812.690,1450.072 C811.495,1457.803 810.084,1466.010 808.454,1474.689 L805.359,1490.803 L825.479,1490.803 L821.732,1470.783 ZM720.482,1466.226 L695.638,1466.226 L695.638,1528.400 L678.695,1528.400 L678.695,1402.749 L695.638,1402.749 L695.638,1451.903 L720.482,1451.903 L720.482,1402.749 L737.425,1402.749 L737.425,1528.400 L720.482,1528.400 L720.482,1466.226 ZM650.755,1529.946 C625.286,1529.946 612.553,1509.168 612.553,1467.609 C612.553,1445.148 615.661,1428.439 621.879,1417.479 C628.097,1406.521 637.613,1401.040 650.430,1401.040 C655.154,1401.040 659.824,1402.289 664.440,1404.784 L664.440,1420.002 C660.095,1417.886 656.457,1416.828 653.525,1416.828 C649.506,1416.828 646.058,1417.818 643.180,1419.798 C640.301,1421.779 637.926,1424.831 636.053,1428.954 C634.179,1433.077 632.794,1438.300 631.898,1444.619 C631.002,1450.940 630.554,1458.413 630.554,1467.040 C630.554,1498.073 638.509,1513.589 654.421,1513.589 C657.191,1513.589 660.530,1512.722 664.440,1510.985 L664.440,1526.528 C660.367,1528.807 655.806,1529.946 650.755,1529.946 ZM586.650,1528.400 L563.597,1466.877 L563.597,1528.400 L546.655,1528.400 L546.655,1402.749 L568.974,1402.749 C578.205,1402.749 585.074,1404.946 589.582,1409.341 C595.284,1415.038 598.135,1423.745 598.135,1435.464 C598.135,1444.471 596.628,1451.699 593.614,1457.152 C590.600,1462.604 586.296,1465.982 580.703,1467.284 L603.837,1528.400 L586.650,1528.400 ZM581.599,1438.475 C581.599,1434.569 581.314,1431.232 580.744,1428.465 C580.174,1425.698 579.278,1423.448 578.056,1421.711 C576.834,1419.975 575.258,1418.700 573.331,1417.886 C571.403,1417.072 569.108,1416.665 566.448,1416.665 L563.597,1416.665 L563.597,1458.413 C570.167,1458.413 574.810,1456.895 577.526,1453.856 C580.241,1450.818 581.599,1445.691 581.599,1438.475 ZM515.213,1503.905 L490.287,1503.905 L485.481,1528.400 L469.190,1528.400 L496.559,1402.749 L509.755,1402.749 L536.717,1528.400 L519.937,1528.400 L515.213,1503.905 ZM509.022,1470.783 C506.523,1457.166 504.487,1442.625 502.913,1427.163 C502.152,1434.705 501.174,1442.341 499.980,1450.072 C498.785,1457.803 497.374,1466.010 495.745,1474.689 L492.649,1490.803 L512.769,1490.803 L509.022,1470.783 ZM418.035,1402.749 L463.081,1402.749 L463.081,1417.072 L434.978,1417.072 L434.978,1456.867 L459.904,1456.867 L459.904,1471.190 L434.978,1471.190 L434.978,1514.077 L463.081,1514.077 L463.081,1528.400 L418.035,1528.400 L418.035,1402.749 ZM374.456,1529.946 C367.234,1529.946 361.070,1527.967 355.966,1524.006 L355.966,1507.241 C361.994,1511.636 367.478,1513.833 372.420,1513.833 C377.035,1513.833 380.647,1512.301 383.254,1509.235 C385.860,1506.171 387.164,1502.006 387.164,1496.743 C387.164,1492.186 386.158,1488.090 384.150,1484.455 C383.117,1482.719 381.678,1480.725 379.833,1478.473 C377.986,1476.223 375.678,1473.713 372.909,1470.946 C368.618,1466.714 365.061,1462.971 362.238,1459.715 C359.414,1456.460 357.323,1453.612 355.966,1451.170 C353.359,1446.397 352.056,1440.375 352.056,1433.104 C352.056,1423.285 354.608,1415.499 359.713,1409.748 C364.871,1403.943 371.795,1401.040 380.484,1401.040 C386.512,1401.040 392.267,1402.478 397.753,1405.353 L397.753,1421.874 C392.593,1418.185 387.950,1416.340 383.824,1416.340 C379.371,1416.340 375.732,1417.914 372.909,1421.060 C370.084,1424.044 368.673,1428.032 368.673,1433.023 C368.673,1437.417 369.677,1441.189 371.687,1444.334 C372.718,1446.017 374.416,1448.187 376.778,1450.845 C379.140,1453.504 382.195,1456.704 385.942,1460.448 C392.837,1467.446 397.535,1473.497 400.034,1478.596 C402.531,1483.533 403.781,1489.582 403.781,1496.743 C403.781,1506.456 401.038,1514.457 395.554,1520.750 C390.068,1526.882 383.036,1529.946 374.456,1529.946 ZM295.200,1402.749 L340.245,1402.749 L340.245,1417.072 L312.142,1417.072 L312.142,1456.867 L337.068,1456.867 L337.068,1471.190 L312.142,1471.190 L312.142,1514.077 L340.245,1514.077 L340.245,1528.400 L295.200,1528.400 L295.200,1402.749 ZM264.898,1528.400 L241.846,1466.877 L241.846,1528.400 L224.903,1528.400 L224.903,1402.749 L247.222,1402.749 C256.453,1402.749 263.322,1404.946 267.830,1409.341 C273.532,1415.038 276.383,1423.745 276.383,1435.464 C276.383,1444.471 274.876,1451.699 271.862,1457.152 C268.849,1462.604 264.544,1465.982 258.952,1467.284 L282.085,1528.400 L264.898,1528.400 ZM259.848,1438.475 C259.848,1434.569 259.563,1431.232 258.992,1428.465 C258.422,1425.698 257.526,1423.448 256.304,1421.711 C255.082,1419.975 253.507,1418.700 251.580,1417.886 C249.652,1417.072 247.357,1416.665 244.697,1416.665 L241.846,1416.665 L241.846,1458.413 C248.416,1458.413 253.059,1456.895 255.775,1453.856 C258.490,1450.818 259.848,1445.691 259.848,1438.475 Z" class="cls-2"/>
  <path d="M1749.899,849.156 L1848.217,1108.901 L1775.171,1108.901 L1677.199,847.426 L1677.199,1108.901 L1605.192,1108.901 L1605.192,574.884 L1700.048,574.884 C1739.281,574.884 1768.474,584.222 1787.634,602.899 C1811.867,627.110 1823.983,664.117 1823.983,713.922 C1823.983,752.200 1817.579,782.922 1804.770,806.095 C1791.961,829.268 1773.667,843.622 1749.899,849.156 ZM1750.072,684.178 C1747.649,672.418 1743.841,662.853 1738.648,655.471 C1733.455,648.094 1726.758,642.674 1718.569,639.215 C1710.374,635.756 1700.621,634.027 1689.316,634.027 L1677.199,634.027 L1677.199,811.456 C1705.122,811.456 1724.854,805.004 1736.398,792.088 C1747.935,779.177 1753.707,757.388 1753.707,726.719 C1753.707,710.118 1752.495,695.937 1750.072,684.178 ZM1347.628,574.884 L1539.070,574.884 L1539.070,635.756 L1419.635,635.756 L1419.635,804.885 L1525.569,804.885 L1525.569,865.757 L1419.635,865.757 L1419.635,1048.029 L1539.070,1048.029 L1539.070,1108.901 L1347.628,1108.901 L1347.628,574.884 ZM1374.284,466.282 L1412.019,424.778 L1486.450,497.410 L1460.832,526.809 L1374.284,466.282 ZM1216.076,1073.968 C1189.993,1097.260 1143.258,1108.901 1075.870,1108.901 L1017.710,1108.901 L1017.710,574.884 L1106.334,574.884 C1133.337,574.884 1156.067,577.883 1174.534,583.877 C1191.610,589.643 1206.843,599.905 1220.231,614.659 C1240.309,636.794 1254.617,665.620 1263.158,701.125 C1271.694,735.485 1275.967,784.711 1275.967,848.810 C1275.967,907.607 1271.234,955.569 1261.773,992.690 C1252.540,1028.201 1237.307,1055.292 1216.076,1073.968 ZM1178.688,681.757 C1164.148,650.861 1137.491,635.411 1098.718,635.411 L1089.717,635.411 L1089.717,1045.953 C1133.564,1045.953 1162.877,1032.697 1177.649,1006.179 C1192.882,979.666 1200.498,928.132 1200.498,851.577 C1200.498,769.261 1193.228,712.658 1178.688,681.757 ZM787.149,868.524 C779.760,846.162 772.782,823.216 766.204,799.697 C759.627,776.178 753.568,751.508 748.029,725.682 C747.564,722.455 746.818,718.537 745.779,713.922 C744.741,709.312 743.529,704.011 742.144,698.012 C742.837,704.011 743.410,709.139 743.875,713.403 C744.335,717.673 744.681,721.304 744.914,724.298 L748.722,778.599 L752.530,844.659 C752.757,848.350 752.930,852.847 753.049,858.148 C753.163,863.455 753.222,869.448 753.222,876.133 L757.030,1108.901 L686.062,1108.901 L686.062,574.884 L753.222,574.884 L824.883,787.937 C845.655,848.118 864.003,912.336 879.927,980.585 C874.156,939.313 869.888,901.960 867.118,868.524 C864.349,835.094 862.964,803.620 862.964,774.103 L862.964,574.884 L935.317,574.884 L935.317,1108.901 L867.811,1108.901 L787.149,868.524 ZM552.433,1004.795 L446.499,1004.795 L426.074,1108.901 L356.836,1108.901 L473.156,574.884 L529.238,574.884 L643.827,1108.901 L572.512,1108.901 L552.433,1004.795 ZM526.123,864.028 C515.504,806.155 506.850,744.358 500.158,678.644 C496.924,710.696 492.769,743.148 487.696,776.005 C482.616,808.862 476.618,843.741 469.694,880.629 L456.539,949.111 L542.047,949.111 L526.123,864.028 ZM229.785,804.539 L338.488,804.539 L338.488,865.411 L229.785,865.411 L229.785,1108.901 L157.778,1108.901 L157.778,574.884 L350.259,574.884 L350.259,635.756 L229.785,635.756 L229.785,804.539 Z" class="cls-2"/>
</svg>
