<?xml version="1.0" standalone="no"?>
<!DOCTYPE svg PUBLIC "-//W3C//DTD SVG 20010904//EN"
 "http://www.w3.org/TR/2001/REC-SVG-20010904/DTD/svg10.dtd">
<svg version="1.0" xmlns="http://www.w3.org/2000/svg"
 width="1128.000000pt" height="736.000000pt" viewBox="0 0 1128.000000 736.000000"
 preserveAspectRatio="xMidYMid meet">
<metadata>
Created by potrace 1.12, written by Peter Selinger 2001-2015
</metadata>
<g transform="translate(0.000000,736.000000) scale(0.100000,-0.100000)"
fill="#000000" stroke="none">
<path d="M8176 7051 c28 -27 518 -361 524 -359 5 2 44 44 88 94 l80 91 -91 91
-92 92 -260 0 c-149 0 -255 -4 -249 -9z"/>
<path d="M10 4585 l0 -1775 240 0 240 0 0 810 0 810 365 0 365 0 0 205 0 205
-365 0 -365 0 0 560 0 560 405 0 405 0 0 200 0 200 -645 0 -645 0 0 -1775z"/>
<path d="M2110 6352 c0 -5 -173 -802 -385 -1772 -212 -970 -385 -1765 -385
-1767 0 -4 460 -4 460 0 1 1 31 155 68 342 l67 340 355 0 355 0 66 -340 65
-340 238 -3 239 -2 -6 27 c-15 71 -748 3480 -753 3500 -6 23 -6 23 -195 23
-104 0 -189 -4 -189 -8z m226 -1027 c45 -374 89 -656 171 -1093 36 -194 64
-355 61 -357 -3 -3 -131 -4 -284 -3 l-280 3 48 245 c76 394 174 994 210 1285
18 149 34 257 36 240 1 -16 18 -160 38 -320z"/>
<path d="M3530 4585 l0 -1775 240 0 240 0 -5 163 c-3 89 -10 475 -16 857 -5
382 -17 812 -25 955 -16 279 -41 638 -49 695 -5 34 -4 34 4 5 5 -16 21 -86 36
-155 83 -394 132 -555 483 -1602 l307 -918 228 0 227 0 0 1775 0 1775 -246 0
-246 0 5 -832 c3 -460 10 -896 16 -973 16 -205 38 -428 62 -618 11 -93 19
-170 17 -172 -2 -2 -35 114 -73 258 -96 368 -216 749 -502 1597 l-248 735
-227 3 -228 2 0 -1775z m1287 -867 c-3 -8 -6 -5 -6 6 -1 11 2 17 5 13 3 -3 4
-12 1 -19z"/>
<path d="M5740 4586 l0 -1776 258 0 c396 0 595 22 792 86 183 60 307 151 410
300 56 82 127 232 159 339 140 474 143 1576 4 2055 -119 411 -360 675 -678
742 -90 18 -143 21 -522 25 l-423 5 0 -1776z m781 1333 c140 -53 247 -153 306
-287 49 -110 89 -303 115 -552 21 -201 18 -927 -5 -1108 -33 -266 -100 -469
-181 -554 -99 -104 -259 -171 -438 -184 l-98 -7 0 1368 0 1368 108 -6 c89 -4
123 -11 193 -38z"/>
<path d="M7940 4585 l0 -1775 640 0 640 0 0 205 0 205 -400 0 -400 0 0 605 0
605 355 0 355 0 0 200 0 200 -355 0 -355 0 0 565 0 565 400 0 400 0 0 200 0
200 -640 0 -640 0 0 -1775z"/>
<path d="M9660 4585 l0 -1775 240 0 240 0 2 866 3 866 325 -866 325 -866 244
0 c190 0 242 3 238 13 -2 6 -149 393 -326 859 -176 466 -321 850 -321 852 0 2
21 12 48 20 141 48 272 174 342 329 68 152 95 312 94 567 -1 175 -4 207 -27
306 -67 282 -190 452 -385 533 -155 63 -221 71 -654 71 l-388 0 0 -1775z m727
1361 c179 -56 263 -242 263 -586 0 -161 -30 -308 -79 -390 -61 -103 -178 -161
-353 -176 l-78 -7 0 593 0 593 98 -6 c53 -3 120 -12 149 -21z"/>
<path d="M0 1785 l0 -555 5625 0 5625 0 0 555 0 555 -5625 0 -5625 0 0 -555z"/>
<path d="M1415 844 c-73 -38 -104 -96 -105 -195 0 -91 17 -124 115 -230 46
-50 91 -106 99 -124 30 -63 13 -146 -35 -170 -38 -20 -67 -19 -112 5 -20 11
-39 20 -42 20 -3 0 -5 -25 -5 -55 0 -51 2 -55 33 -72 51 -27 133 -23 187 9 69
40 95 93 95 193 0 101 -14 131 -113 238 -96 105 -112 131 -112 188 0 35 6 52
24 72 39 42 68 44 149 12 15 -6 17 -1 17 47 l0 55 -39 11 c-54 17 -120 15
-156 -4z"/>
<path d="M3210 844 c-112 -49 -162 -174 -163 -409 -1 -159 20 -263 66 -332 53
-79 142 -115 232 -92 l45 11 0 54 0 53 -31 -11 c-42 -15 -100 4 -133 43 -94
111 -81 510 19 575 27 17 77 22 118 11 27 -7 27 -7 27 42 0 46 -2 50 -31 60
-44 15 -107 13 -149 -5z"/>
<path d="M8165 837 c-88 -50 -118 -149 -117 -392 1 -307 49 -419 187 -439 29
-5 59 -1 95 11 103 35 138 116 147 348 8 201 -13 346 -60 416 -49 74 -172 102
-252 56z m145 -97 c35 -35 42 -70 47 -241 7 -211 -1 -308 -31 -351 -35 -52
-104 -51 -131 2 -34 65 -43 421 -14 532 18 68 88 99 129 58z"/>
<path d="M460 431 l0 -421 55 0 55 0 0 208 1 207 77 -207 77 -208 59 0 c51 0
57 2 51 18 -4 9 -38 100 -77 202 -65 172 -69 185 -52 195 40 22 72 67 84 116
17 68 7 176 -19 228 -31 61 -66 74 -198 79 l-113 4 0 -421z m179 314 c34 -17
51 -59 51 -125 0 -88 -37 -140 -100 -140 -19 0 -20 6 -20 140 0 134 1 140 20
140 12 0 34 -7 49 -15z"/>
<path d="M930 430 l0 -420 150 0 150 0 0 50 0 50 -95 0 -95 0 0 140 0 140 85
0 85 0 0 50 0 50 -85 0 -85 0 0 135 0 135 95 0 95 0 0 45 0 45 -150 0 -150 0
0 -420z"/>
<path d="M1750 430 l0 -420 150 0 150 0 0 50 0 50 -95 0 -95 0 0 140 0 140 85
0 85 0 0 50 0 50 -85 0 -85 0 0 135 0 135 95 0 95 0 0 45 0 45 -150 0 -150 0
0 -420z"/>
<path d="M2266 833 c-7 -26 -176 -808 -176 -816 0 -4 24 -7 54 -7 l53 0 13 74
c7 41 16 79 20 85 4 8 34 11 86 9 l78 -3 16 -80 15 -80 57 -3 56 -3 -14 63
c-7 35 -47 222 -88 416 -42 194 -76 354 -76 357 0 3 -20 5 -44 5 -34 0 -46 -4
-50 -17z m80 -388 c13 -82 27 -158 30 -167 5 -16 -3 -18 -66 -18 -39 0 -69 3
-67 7 3 5 17 80 31 168 15 88 30 176 34 195 l6 35 3 -35 c2 -19 15 -102 29
-185z"/>
<path d="M2600 430 l0 -420 60 0 60 0 2 195 3 196 44 -118 c24 -65 57 -153 73
-195 l30 -78 54 0 c30 0 54 4 54 8 0 5 -22 67 -49 138 -27 71 -61 160 -75 197
l-25 68 22 8 c56 22 89 96 90 201 1 80 -21 149 -59 182 -30 26 -91 38 -191 38
l-93 0 0 -420z m206 296 c40 -45 39 -176 -3 -217 -10 -10 -33 -21 -51 -25
l-32 -6 0 142 0 143 33 -7 c17 -3 41 -17 53 -30z"/>
<path d="M3480 430 l0 -420 60 0 60 0 0 210 0 210 80 0 80 0 0 -210 0 -210 60
0 60 0 0 420 0 420 -60 0 -60 0 0 -165 0 -165 -80 0 -80 0 0 165 0 165 -60 0
-60 0 0 -420z"/>
<path d="M4264 433 l-91 -418 50 -3 c28 -2 53 2 57 7 3 6 12 45 19 86 l12 75
84 0 83 0 7 -37 c3 -21 11 -59 17 -86 l10 -47 54 0 c37 0 54 4 53 13 0 6 -40
194 -88 417 l-87 405 -45 3 -45 3 -90 -418z m172 -14 c13 -81 24 -149 24 -153
0 -3 -30 -6 -66 -6 l-66 0 6 33 c16 78 56 321 57 350 1 23 4 16 11 -23 5 -30
20 -121 34 -201z"/>
<path d="M4690 430 l0 -420 57 0 56 0 -7 258 c-3 141 -9 280 -12 307 -4 43 -1
38 19 -35 13 -47 57 -185 98 -308 l74 -222 52 0 53 0 0 420 0 420 -56 0 -56 0
3 -284 c4 -244 2 -278 -9 -238 -7 26 -47 154 -89 285 l-77 237 -53 0 -53 0 0
-420z"/>
<path d="M5210 431 l0 -421 53 0 c28 0 83 5 120 10 169 25 216 99 224 355 9
250 -24 375 -115 439 -40 28 -48 30 -162 34 l-120 4 0 -421z m202 303 c56 -29
80 -122 81 -312 0 -204 -28 -277 -114 -302 -19 -6 -40 -10 -46 -10 -10 0 -13
71 -13 326 l0 326 33 -7 c17 -4 44 -14 59 -21z"/>
<path d="M5960 430 l0 -423 100 7 c110 8 172 25 208 59 68 63 99 206 89 417
-9 186 -41 272 -124 328 -34 24 -49 26 -155 30 l-118 4 0 -422z m201 303 c14
-9 32 -25 39 -37 24 -38 39 -138 40 -260 0 -151 -14 -238 -47 -276 -21 -26
-74 -50 -110 -50 -10 0 -13 72 -13 326 l0 326 33 -7 c17 -4 44 -14 58 -22z"/>
<path d="M6470 430 l0 -420 150 0 150 0 0 50 0 50 -90 0 -90 0 0 140 0 140 80
0 80 0 0 50 0 50 -80 0 -80 0 0 135 0 135 90 0 90 0 0 45 0 45 -150 0 -150 0
0 -420z"/>
<path d="M6812 838 c3 -7 40 -196 84 -420 l78 -408 43 0 c36 0 43 4 48 23 3
12 41 200 83 417 l78 395 -49 3 c-27 2 -51 2 -53 0 -4 -5 -70 -380 -85 -488
-13 -96 -28 -136 -29 -80 -1 19 -20 154 -43 300 l-42 265 -59 3 c-45 2 -57 0
-54 -10z"/>
<path d="M7290 430 l0 -420 150 0 150 0 0 50 0 50 -95 0 -95 0 0 140 0 140 85
0 85 0 0 50 0 50 -85 0 -85 0 0 135 0 135 95 0 95 0 0 45 0 45 -150 0 -150 0
0 -420z"/>
<path d="M7690 430 l0 -420 150 0 150 0 0 50 0 50 -90 0 -90 0 0 370 0 370
-60 0 -60 0 0 -420z"/>
<path d="M8590 431 l0 -421 60 0 60 0 0 190 0 190 47 0 c121 0 187 83 187 235
-1 64 -5 90 -25 130 -36 75 -68 89 -211 94 l-118 3 0 -421z m197 303 c40 -25
56 -134 29 -198 -9 -23 -24 -37 -46 -45 -61 -21 -60 -24 -60 130 l0 141 28 -7
c15 -3 37 -13 49 -21z"/>
<path d="M9042 458 c-18 -216 -32 -405 -32 -420 0 -27 2 -28 50 -28 28 0 50 1
50 3 8 115 30 504 31 532 1 29 5 16 15 -45 7 -47 32 -176 55 -287 l43 -203 37
0 37 0 46 238 c25 130 50 262 55 292 9 54 9 54 10 -35 1 -106 20 -440 27 -472
4 -20 11 -23 54 -23 48 0 50 1 50 28 0 15 -16 194 -35 397 -19 204 -35 380
-35 393 0 20 -5 22 -50 22 -43 0 -50 -3 -55 -22 -11 -45 -84 -434 -90 -483
-11 -78 -22 -84 -29 -19 -7 53 -89 463 -102 507 -4 13 -16 17 -53 17 l-47 0
-32 -392z"/>
<path d="M9670 430 l0 -420 150 0 150 0 0 50 0 50 -95 0 -95 0 0 140 0 140 85
0 85 0 0 50 0 50 -85 0 -85 0 0 135 0 135 95 0 95 0 0 45 0 45 -150 0 -150 0
0 -420z"/>
<path d="M10070 430 l0 -420 57 0 56 0 -5 293 -6 292 19 -70 c10 -38 52 -169
92 -290 l74 -220 51 -3 52 -3 0 420 0 421 -56 0 -57 0 6 -272 c3 -150 8 -284
11 -298 3 -14 -3 4 -14 40 -11 36 -54 170 -96 298 l-75 232 -54 0 -55 0 0
-420z"/>
<path d="M10530 800 l0 -50 65 0 65 0 0 -370 0 -370 55 0 55 0 0 370 0 370 60
0 60 0 0 50 0 50 -180 0 -180 0 0 -50z"/>
</g>
</svg>
