<svg xmlns="http://www.w3.org/2000/svg" xmlns:xlink="http://www.w3.org/1999/xlink" preserveAspectRatio="xMidYMid" width="120" height="40" viewBox="0 0 120 40">
  <defs>
    <style>
      .cls-1 {
        fill: #fff;
        fill-rule: evenodd;
      }
    </style>
  </defs>
  <path d="M75.038,23.345 L79.554,35.278 L76.199,35.278 L71.698,23.266 L71.698,35.278 L68.389,35.278 L68.389,10.744 L72.747,10.744 C74.550,10.744 75.891,11.173 76.771,12.032 C77.884,13.144 78.441,14.844 78.441,17.132 C78.441,18.891 78.147,20.302 77.558,21.367 C76.970,22.431 76.130,23.091 75.038,23.345 ZM75.046,15.766 C74.934,15.225 74.759,14.786 74.521,14.447 C74.282,14.108 73.974,13.859 73.598,13.700 C73.222,13.541 72.774,13.462 72.254,13.462 L71.698,13.462 L71.698,21.613 C72.980,21.613 73.887,21.317 74.417,20.723 C74.947,20.130 75.213,19.129 75.213,17.720 C75.213,16.957 75.157,16.306 75.046,15.766 ZM56.556,10.744 L65.352,10.744 L65.352,13.541 L59.865,13.541 L59.865,21.311 L64.731,21.311 L64.731,24.108 L59.865,24.108 L59.865,32.482 L65.352,32.482 L65.352,35.278 L56.556,35.278 L56.556,10.744 ZM57.781,5.755 L59.515,3.848 L62.934,7.185 L61.757,8.536 L57.781,5.755 ZM50.513,33.673 C49.314,34.743 47.167,35.278 44.071,35.278 L41.399,35.278 L41.399,10.744 L45.471,10.744 C46.712,10.744 47.756,10.882 48.604,11.158 C49.389,11.423 50.089,11.894 50.704,12.572 C51.626,13.589 52.283,14.913 52.676,16.544 C53.068,18.123 53.264,20.384 53.264,23.329 C53.264,26.030 53.047,28.234 52.612,29.939 C52.188,31.571 51.488,32.815 50.513,33.673 ZM48.795,15.654 C48.127,14.235 46.902,13.525 45.121,13.525 L44.708,13.525 L44.708,32.386 C46.722,32.386 48.069,31.777 48.747,30.559 C49.447,29.341 49.797,26.973 49.797,23.456 C49.797,19.674 49.463,17.074 48.795,15.654 ZM30.807,24.235 C30.468,23.207 30.147,22.153 29.845,21.073 C29.543,19.992 29.264,18.859 29.010,17.672 C28.988,17.524 28.954,17.344 28.906,17.132 C28.859,16.920 28.803,16.677 28.739,16.401 C28.771,16.677 28.798,16.912 28.819,17.108 C28.840,17.304 28.856,17.471 28.867,17.609 L29.042,20.104 L29.217,23.138 C29.227,23.308 29.235,23.515 29.240,23.758 C29.246,24.002 29.248,24.277 29.248,24.584 L29.423,35.278 L26.163,35.278 L26.163,10.744 L29.248,10.744 L32.541,20.533 C33.495,23.297 34.338,26.248 35.069,29.383 C34.804,27.487 34.608,25.771 34.481,24.235 C34.354,22.699 34.290,21.253 34.290,19.897 L34.290,10.744 L37.614,10.744 L37.614,35.278 L34.513,35.278 L30.807,24.235 ZM20.024,30.495 L15.157,30.495 L14.219,35.278 L11.038,35.278 L16.382,10.744 L18.958,10.744 L24.223,35.278 L20.946,35.278 L20.024,30.495 ZM18.815,24.028 C18.327,21.369 17.930,18.530 17.622,15.511 C17.474,16.984 17.283,18.475 17.050,19.984 C16.816,21.494 16.541,23.096 16.223,24.791 L15.618,27.937 L19.547,27.937 L18.815,24.028 ZM5.201,21.295 L10.195,21.295 L10.195,24.092 L5.201,24.092 L5.201,35.278 L1.893,35.278 L1.893,10.744 L10.736,10.744 L10.736,13.541 L5.201,13.541 L5.201,21.295 Z" class="cls-1"/>
</svg>
